<svg height="512" viewBox="0 0 60 60" width="512" xmlns="http://www.w3.org/2000/svg"><g id="Page-1" fill="none" fill-rule="evenodd"><g id="022---360-Degree-View" fill="rgb(0,0,0)" fill-rule="nonzero"><path id="Shape" d="m48 11.428v-7.428c0-2.209139-1.790861-4-4-4h-28c-2.209139 0-4 1.790861-4 4v7.428c-8.676 2.721-11.686 6.772-11.812 6.948-.11413016.1708388-.17916076.3697356-.188.575v.062 29.987c-.00007177.2095564.06569083.4138402.188.584.092.127 2.314 3.148 8.423 5.728.30891931.1304438.6626555.097369.94203833-.0880816.27938283-.1854507.44721727-.4985877.44696167-.8339184v-10.132c.65-.2573333 1.3166667-.4986667 2-.724v12.466c0 2.209139 1.790861 4 4 4h28c2.209139 0 4-1.790861 4-4v-12.466c.684.2273333 1.3506667.4706667 2 .73v10.126c-.0002556.3353307.1675788.6484677.4469617.8339184.2793828.1854506.633119.2185254.9420383.0880816 6.109-2.58 8.331-5.6 8.423-5.728.1226425-.1849978.188034-.402042.188-.624 0-.02 0-.04 0-.06s0-.04 0-.06v-29.88c.0003632-.2094464-.0650463-.4137201-.187-.584-.127-.176-3.137-4.227-11.813-6.948zm-40 32.134v9.28c-2.25299141-.9984565-4.29069482-2.4248489-6-4.2v-27.233c1.82169631 1.4846601 3.84104382 2.7087213 6 3.637zm4-2.129c-.68.214-1.3466667.442-2 .684v-17.727c-.00009555-.4018848-.24076852-.7646668-.611-.921-2.62789872-1.0212517-5.03092267-2.5461563-7.074-4.489 1.076-1.1 3.975-3.566 9.685-5.459zm25.692-39.433-1.282 1.368c-.378896.40269492-.907076.63133176-1.46.632h-9.9c-.5527743.00000995-1.0809024-.22876112-1.459-.632l-1.282-1.368zm8.308 54c0 1.1045695-.8954305 2-2 2h-28c-1.1045695 0-2-.8954305-2-2v-1.556c.6053465.3599241 1.2957468.5518554 2 .556h28c.7042532-.0041446 1.3946535-.1960759 2-.556zm0-5c0 1.1045695-.8954305 2-2 2h-28c-1.1045695 0-2-.8954305-2-2v-47c0-1.1045695.8954305-2 2-2h3.567l2.565 2.735c.7567936.80574999 1.8125738 1.2634477 2.918 1.265h9.9c1.1054015-.00208587 2.1611681-.45925919 2.919-1.264l2.564-2.736h3.567c1.1045695 0 2 .8954305 2 2zm4.611-27.531c-.3702315.1563332-.6109044.5191152-.611.921v17.729c-.647-.243-1.316-.472-2-.686v-27.912c5.713 1.894 8.611 4.365 9.685 5.459-2.042966 1.9429863-4.4460197 3.4679097-7.074 4.489zm7.389 25.083-.009.026c-.0108428.0328082-.0198567.0661929-.027.1-1.7045207 1.7553316-3.7288406 3.1686898-5.964 4.164v-27.8c2.1589562-.9282787 4.1783037-2.1523399 6-3.637z"/><path id="Shape" d="m21 31c1.6630756-.0011435 3.1519423-1.0312052 3.7393934-2.5870726.587451-1.5558673.150914-3.3129065-1.0963934-4.4129274 1.2600919-1.1139958 1.6887161-2.8972529 1.0725424-4.4622284-.6161738-1.5649754-2.1455072-2.577331-3.8268374-2.5332083-1.6813303.0441227-3.1554613 1.1352974-3.688705 2.7304367-.1128959.3394023-.0361471.7132522.201336.9807241.237483.2674719.599621.3879305.95.3160001.350379-.0719305.6357681-.3253219.748664-.6647242.323233-.9687689 1.3244352-1.5383919 2.3223611-1.3212817.9979258.2171101 1.6719774 1.1512036 1.5635114 2.1666976s-.9646033 1.7861463-1.9858725 1.7875841c-.5522847 0-1 .4477153-1 1s.4477153 1 1 1c1.0212692.0014378 1.8774065.7720901 1.9858725 1.7875841s-.5655856 1.9495875-1.5635114 2.1666976c-.9979259.2171102-1.9991281-.3525128-2.3223611-1.3212817-.1128959-.3394023-.398285-.5927937-.748664-.6647242-.350379-.0719304-.712517.0485282-.95.3160001-.2374831.2674719-.3142319.6413218-.201336.9807241.5435156 1.6363384 2.0757624 2.7391528 3.8 2.735z"/><path id="Shape" d="m34 26.5c.1270679-2.3433786-1.657885-4.3514506-4-4.5-.4557637.0058316-.9061997.098838-1.327.274.4135597-1.4481279 1.4028493-2.663324 2.737-3.362.4964374-.2306754.7151363-.8176308.4906794-1.3169107-.224457-.4992798-.808635-.7252927-1.3106794-.5070893-4.538 2.037-4.59 8.632-4.59 8.912.006183.0520822.0165499.103582.031.154-.008.116-.031.228-.031.346-.1270679 2.3433786 1.657885 4.3514506 4 4.5 2.342115-.1485494 4.1270679-2.1566214 4-4.5zm-4 2.5c-1.2324358-.1564335-2.1179166-1.2632846-2-2.5-.1179166-1.2367154.7675642-2.3435665 2-2.5 1.2324358.1564335 2.1179166 1.2632846 2 2.5.1179166 1.2367154-.7675642 2.3435665-2 2.5z"/><path id="Shape" d="m39 17c-2.209139 0-4 1.790861-4 4v6c0 2.209139 1.790861 4 4 4s4-1.790861 4-4v-6c0-2.209139-1.790861-4-4-4zm2 10c0 1.1045695-.8954305 2-2 2s-2-.8954305-2-2v-6c0-1.1045695.8954305-2 2-2s2 .8954305 2 2z"/><path id="Shape" d="m28.058 35.037c-2.999322-.0125049-5.8870645 1.1364282-8.058 3.206v-1.243c0-.5522847-.4477153-1-1-1s-1 .4477153-1 1v4c0 .5522847.4477153 1 1 1h4c.5522847 0 1-.4477153 1-1s-.4477153-1-1-1h-1.944c1.7952824-1.8874583 4.2841029-2.9589987 6.889-2.966.5522847.0312041 1.0252959-.3912153 1.0564999-.9435.0312041-.5522847-.3912152-1.0252959-.9434999-1.0565z"/><path id="Shape" d="m41 36c-.5522847 0-1 .4477153-1 1v1.241c-2.1717659-2.0675607-5.0594722-3.2143291-8.058-3.2-.3572656.0200069-.6767191.2290929-.8380254.5484974s-.1399593.7006024.056 1c.1959593.2993977.5367598.4715095.8940254.4515026 2.6023361.0054906 5.0893343 1.0744952 6.884 2.959h-1.938c-.5522847 0-1 .4477153-1 1s.4477153 1 1 1h4c.5522847 0 1-.4477153 1-1v-4c0-.5522847-.4477153-1-1-1z"/></g></g></svg>