<svg height="472pt" viewBox="0 -19 472 472" width="472pt" xmlns="http://www.w3.org/2000/svg"><path d="m472 109.429688v-68.652344c0-22.601563-17.699219-40.777344-39.453125-40.777344h-393.097656c-21.75 0-39.449219 18.175781-39.449219 40.777344v316.914062c0 22.609375 17.699219 41.308594 39.449219 41.308594h190.921875l7.601562 13.382812c7.53125 13.417969 21.75 21.695313 37.136719 21.617188h40.890625c20.644531.132812 38.367188-14.660156 41.921875-35h74.625c21.753906 0 39.453125-18.699219 39.453125-41.308594v-248.105468c0-.027344 0-.050782 0-.078126 0-.027343 0-.050781 0-.078124zm-432.550781-93.429688h393.097656c12.929687 0 23.453125 11 23.453125 24.777344v61.222656h-440v-61.222656c0-13.777344 10.519531-24.777344 23.449219-24.777344zm276.550781 402h-40.890625c-9.609375.015625-18.472656-5.175781-23.160156-13.566406l-33.089844-59.359375c4.570313-2.789063 10.484375-1.894531 14.03125 2.117187l10.210937 11.71875c2.191407 2.511719 5.710938 3.402344 8.832032 2.230469 3.125-1.167969 5.195312-4.152344 5.195312-7.484375-.019531-28.671875-.023437-66.203125.023438-85.402344.035156-.652344.339844-1.261718.835937-1.6875.496094-.425781 1.144531-.628906 1.792969-.566406h3.917969c.65625-.074219 1.3125.128906 1.8125.558594.5.425781.796875 1.042968.828125 1.703125.003906 4.628906-.28125 67.023437-.285156 67.652343 0 .351563-.054688.722657-.054688 1.058594v3.28125c0 4.417969 3.582031 8 8 8s8-3.582031 8-8v-19.222656c.101562-.578125.59375-1.007812 1.179688-1.03125h7.972656c.519531.050781.898437.511719.847656 1.03125v25.484375c0 4.417969 3.582031 8 8 8s8-3.582031 8-8v-19.226563c0-.519531.59375-1.289062 1.109375-1.289062h7.902344c.519531 0 .988281.769531.988281 1.289062v19.226563c0 4.417969 3.582031 8 8 8s8-3.582031 8-8v-2.875c-.058594-.75.160156-1.492187.613281-2.085937.292969-.273438.695313-.402344 1.09375-.351563l4.191407.011719c.683593-.035156 1.347656.210937 1.84375.679687.496093.46875.78125 1.121094.785156 1.800781.042968 16.472657.28125 16.773438.265625 24.867188-.007813 4.183594.207031 10.464844.207031 22.101562v.976563c0 14.652344-12.390625 26.359375-27 26.359375zm-124.257812-118c-4.222657.003906-8.25-1.789062-11.074219-4.929688-2.402344-2.691406-3.546875-6.28125-3.148438-9.867187l10.125-88.203125h8.355469v21.019531c0 4.417969 3.582031 8 8 8s8-3.582031 8-8v-21.019531h50v21.019531c0 4.417969 3.582031 8 8 8s8-3.582031 8-8v-21.019531h6.894531l10.125 88.152344c.394531 3.546875-.75 7.09375-3.148437 9.738281-2.484375 2.746094-5.914063 4.457031-9.601563 4.785156.039063-14.921875.074219-29.28125.070313-31.453125-.011719-4.902344-1.992188-9.597656-5.496094-13.023437-3.507812-3.425781-8.242188-5.300781-13.144531-5.199219h-3.914063c-4.910156-.070312-9.644531 1.824219-13.144531 5.265625s-5.480469 8.140625-5.492187 13.050781c-.019532 8-.03125 18.683594-.035157 31.683594zm70.257812-119h-50v-7.535156c0-12.796875 11.238281-23.207032 25-23.207032s25 10.410157 25 23.207032zm170.546875 202h-74.015625c.007812-7 .015625-11.144531.023438-14.246094.015624-8.121094.015624-8.5-.03125-25.023437-.078126-10.230469-8.398438-18.480469-18.628907-18.476563l-4.199219-.03125c-.628906 0-1.246093-.152344-1.859374-.089844-1.003907-8.558593-8.207032-15.039062-16.824219-15.132812h-7.898438c-1.484375.054688-2.953125.308594-4.371093.746094-.882813-1.152344-1.914063-2.179688-3.0625-3.0625.746093-.667969 1.460937-1.375 2.136718-2.117188 5.410156-6.023437 7.992188-14.070312 7.097656-22.117187l-10.9375-95.222657c-.453124-4.070312-3.859374-7.164062-7.949218-7.226562h-14.027344v-7.535156c0-21.617188-18.414062-39.207032-41-39.207032s-41 17.589844-41 39.207032v7.535156h-15.488281c-4.09375.070312-7.496094 3.167969-7.949219 7.234375l-10.941406 95.164063c-.894532 8.101562 1.6875 16.199218 7.101562 22.285156 5.859375 6.554687 14.230469 10.304687 23.019532 10.316406h49.367187v17.214844c-10.046875-7.71875-24.097656-7.445313-33.835937.652344l-3.652344 2.777343c-3.152344 2.476563-4.046875 6.871094-2.117188 10.382813l19.957032 35.972656h-182.011719c-12.929688 0-23.449219-11.527344-23.449219-25.308594v-239.691406h440v239.691406c0 13.78125-10.523438 25.308594-23.453125 25.308594zm0 0"/><path d="m123.308594 87.269531c15.972656 0 28.96875-13.457031 28.96875-30 0-16.546875-12.996094-29.992187-28.96875-29.992187-15.96875 0-28.964844 13.457031-28.964844 29.996094 0 16.539062 12.996094 29.996093 28.964844 29.996093zm0-43.992187c7.152344 0 12.96875 6.28125 12.96875 13.996094 0 7.714843-5.816406 14-12.96875 14-7.148438 0-12.964844-6.277344-12.964844-14 0-7.722657 5.816406-13.996094 12.964844-13.996094zm0 0"/><path d="m191.449219 87.269531c15.972656 0 28.964843-13.457031 28.964843-30 0-16.546875-12.992187-29.992187-28.964843-29.992187-15.972657 0-28.96875 13.457031-28.96875 29.996094 0 16.539062 12.996093 29.996093 28.96875 29.996093zm0-43.992187c7.148437 0 12.964843 6.28125 12.964843 13.996094 0 7.714843-5.816406 14-12.964843 14-7.152344 0-12.96875-6.277344-12.96875-14 0-7.722657 5.820312-13.996094 12.96875-13.996094zm0 0"/><path d="m55.171875 87.269531c15.972656 0 28.964844-13.457031 28.964844-30 0-16.546875-12.992188-29.992187-28.964844-29.992187s-28.964844 13.457031-28.964844 29.996094c0 16.539062 12.992188 29.996093 28.964844 29.996093zm0-43.992187c7.148437 0 12.964844 6.28125 12.964844 13.996094 0 7.714843-5.816407 14-12.964844 14s-12.964844-6.277344-12.964844-14c0-7.722657 5.816407-13.996094 12.964844-13.996094zm0 0"/></svg>