<svg xmlns="http://www.w3.org/2000/svg" width="490.668" height="469.336" viewBox="0 0 490.668 469.336">
  <defs>
    <style>
      .cls-1 {
        fill: #fff;
      }
    </style>
  </defs>
  <g id="enter" transform="translate(0 -0.332)">
    <path id="Trazado_1" data-name="Trazado 1" class="cls-1" d="M325.332,251H16a16,16,0,0,1,0-32H325.332a16,16,0,0,1,0,32Zm0,0"/>
    <path id="Trazado_2" data-name="Trazado 2" class="cls-1" d="M240,336.332A16.01,16.01,0,0,1,228.691,309l74.027-74.023-74.027-74.027a16.007,16.007,0,0,1,22.637-22.637l85.332,85.336a16,16,0,0,1,0,22.633l-85.332,85.332A15.879,15.879,0,0,1,240,336.332Zm0,0"/>
    <path id="Trazado_3" data-name="Trazado 3" class="cls-1" d="M256,469.668c-97.09,0-182.8-58.41-218.41-148.824a16,16,0,1,1,29.781-11.687C98.113,387.215,172.16,437.668,256,437.668c111.742,0,202.668-90.926,202.668-202.668S367.742,32.332,256,32.332c-83.84,0-157.887,50.453-188.629,128.512A16,16,0,1,1,37.59,149.156C73.2,58.742,158.91.332,256,.332,385.387.332,490.668,105.613,490.668,235S385.387,469.668,256,469.668Zm0,0"/>
  </g>
</svg>
